<svg width="197" height="39" viewBox="0 0 197 39" fill="none" xmlns="http://www.w3.org/2000/svg">
<path d="M0.642046 38V3.09091H9.07955V17.8523H9.53977L21.0795 3.09091H31.017L18.642 18.6705L31.2386 38H21.1477L12.4545 24.2784L9.07955 28.5398V38H0.642046ZM41.7259 38.4432C40.0554 38.4432 38.5724 38.1648 37.277 37.608C35.9929 37.0398 34.9759 36.1875 34.2259 35.0511C33.4872 33.9034 33.1179 32.4659 33.1179 30.7386C33.1179 29.2841 33.3736 28.0568 33.8849 27.0568C34.3963 26.0568 35.1009 25.2443 35.9986 24.6193C36.8963 23.9943 37.9304 23.5227 39.1009 23.2045C40.2713 22.875 41.5213 22.6534 42.8509 22.5398C44.3395 22.4034 45.5384 22.2614 46.4474 22.1136C47.3565 21.9545 48.0156 21.733 48.4247 21.4489C48.8452 21.1534 49.0554 20.7386 49.0554 20.2045V20.1193C49.0554 19.2443 48.7543 18.5682 48.152 18.0909C47.5497 17.6136 46.7372 17.375 45.7145 17.375C44.6122 17.375 43.7259 17.6136 43.0554 18.0909C42.3849 18.5682 41.9588 19.2273 41.777 20.0682L34.0895 19.7955C34.3168 18.2045 34.902 16.7841 35.8452 15.5341C36.7997 14.2727 38.1065 13.2841 39.7656 12.5682C41.4361 11.8409 43.4418 11.4773 45.7827 11.4773C47.4531 11.4773 48.9929 11.6761 50.402 12.0739C51.8111 12.4602 53.0384 13.0284 54.0838 13.7784C55.1293 14.517 55.9361 15.4261 56.5043 16.5057C57.0838 17.5852 57.3736 18.8182 57.3736 20.2045V38H49.5327V34.3523H49.3281C48.8622 35.2386 48.2656 35.9886 47.5384 36.6023C46.8224 37.2159 45.9759 37.6761 44.9986 37.983C44.0327 38.2898 42.9418 38.4432 41.7259 38.4432ZM44.2997 32.9886C45.1974 32.9886 46.0043 32.8068 46.7202 32.4432C47.4474 32.0795 48.027 31.5795 48.4588 30.9432C48.8906 30.2955 49.1065 29.5455 49.1065 28.6932V26.2045C48.8679 26.3295 48.5781 26.4432 48.2372 26.5455C47.9077 26.6477 47.544 26.7443 47.1463 26.8352C46.7486 26.9261 46.3395 27.0057 45.919 27.0739C45.4986 27.142 45.0952 27.2045 44.7088 27.2614C43.9247 27.3864 43.2543 27.5795 42.6974 27.8409C42.152 28.1023 41.7315 28.4432 41.4361 28.8636C41.152 29.2727 41.0099 29.7614 41.0099 30.3295C41.0099 31.1932 41.3168 31.8523 41.9304 32.3068C42.5554 32.7614 43.3452 32.9886 44.2997 32.9886ZM94.1577 15.7386H85.6349C85.5213 14.8636 85.2884 14.0739 84.9361 13.3693C84.5838 12.6648 84.1179 12.0625 83.5384 11.5625C82.9588 11.0625 82.2713 10.6818 81.4759 10.4205C80.6918 10.1477 79.8224 10.0114 78.8679 10.0114C77.1747 10.0114 75.7145 10.4261 74.4872 11.2557C73.2713 12.0852 72.3338 13.2841 71.6747 14.8523C71.027 16.4205 70.7031 18.3182 70.7031 20.5455C70.7031 22.8636 71.0327 24.8068 71.6918 26.375C72.3622 27.9318 73.2997 29.108 74.5043 29.9034C75.7202 30.6875 77.1577 31.0795 78.8168 31.0795C79.7486 31.0795 80.5952 30.9602 81.3565 30.7216C82.1293 30.483 82.8054 30.1364 83.3849 29.6818C83.9759 29.2159 84.4588 28.6534 84.8338 27.9943C85.2202 27.3239 85.4872 26.5682 85.6349 25.7273L94.1577 25.7784C94.0099 27.3239 93.5611 28.8466 92.8111 30.3466C92.0724 31.8466 91.0554 33.2159 89.7599 34.4545C88.4645 35.6818 86.8849 36.6591 85.0213 37.3864C83.169 38.1136 81.044 38.4773 78.6463 38.4773C75.4872 38.4773 72.6577 37.7841 70.1577 36.3977C67.669 35 65.7031 32.9659 64.2599 30.2955C62.8168 27.625 62.0952 24.375 62.0952 20.5455C62.0952 16.7045 62.8281 13.4489 64.294 10.7784C65.7599 8.10795 67.7429 6.07955 70.2429 4.69318C72.7429 3.30682 75.544 2.61364 78.6463 2.61364C80.7599 2.61364 82.7145 2.90909 84.5099 3.5C86.3054 4.07954 87.8849 4.93182 89.2486 6.05682C90.6122 7.17045 91.7202 8.53977 92.5724 10.1648C93.4247 11.7898 93.9531 13.6477 94.1577 15.7386ZM111.207 38.4943C108.457 38.4943 106.094 37.9318 104.116 36.8068C102.151 35.6705 100.634 34.0909 99.5653 32.0682C98.5085 30.0341 97.9801 27.6761 97.9801 24.9943C97.9801 22.3011 98.5085 19.9432 99.5653 17.9205C100.634 15.8864 102.151 14.3068 104.116 13.1818C106.094 12.0455 108.457 11.4773 111.207 11.4773C113.957 11.4773 116.315 12.0455 118.281 13.1818C120.259 14.3068 121.776 15.8864 122.832 17.9205C123.901 19.9432 124.435 22.3011 124.435 24.9943C124.435 27.6761 123.901 30.0341 122.832 32.0682C121.776 34.0909 120.259 35.6705 118.281 36.8068C116.315 37.9318 113.957 38.4943 111.207 38.4943ZM111.259 32.2045C112.259 32.2045 113.105 31.8977 113.798 31.2841C114.491 30.6705 115.02 29.8182 115.384 28.7273C115.759 27.6364 115.946 26.375 115.946 24.9432C115.946 23.4886 115.759 22.2159 115.384 21.125C115.02 20.0341 114.491 19.1818 113.798 18.5682C113.105 17.9545 112.259 17.6477 111.259 17.6477C110.224 17.6477 109.349 17.9545 108.634 18.5682C107.929 19.1818 107.389 20.0341 107.014 21.125C106.651 22.2159 106.469 23.4886 106.469 24.9432C106.469 26.375 106.651 27.6364 107.014 28.7273C107.389 29.8182 107.929 30.6705 108.634 31.2841C109.349 31.8977 110.224 32.2045 111.259 32.2045ZM128.705 38V11.8182H137.04V38H128.705ZM132.881 8.76705C131.71 8.76705 130.705 8.38068 129.864 7.60795C129.023 6.82386 128.602 5.88068 128.602 4.77841C128.602 3.6875 129.023 2.75568 129.864 1.98295C130.705 1.19886 131.71 0.806816 132.881 0.806816C134.063 0.806816 135.068 1.19886 135.898 1.98295C136.739 2.75568 137.159 3.6875 137.159 4.77841C137.159 5.88068 136.739 6.82386 135.898 7.60795C135.068 8.38068 134.063 8.76705 132.881 8.76705ZM150.68 23.0682V38H142.345V11.8182H150.271V16.625H150.561C151.141 15.0227 152.129 13.767 153.527 12.858C154.925 11.9375 156.589 11.4773 158.521 11.4773C160.362 11.4773 161.959 11.892 163.311 12.7216C164.675 13.5398 165.732 14.6875 166.482 16.1648C167.243 17.6307 167.618 19.3466 167.607 21.3125V38H159.271V22.9489C159.283 21.4943 158.913 20.358 158.163 19.5398C157.425 18.7216 156.396 18.3125 155.078 18.3125C154.203 18.3125 153.43 18.5057 152.76 18.892C152.101 19.267 151.589 19.8068 151.226 20.5114C150.874 21.2159 150.692 22.0682 150.68 23.0682ZM195.625 19.8125L187.972 20.017C187.892 19.4716 187.676 18.9886 187.324 18.5682C186.972 18.1364 186.511 17.8011 185.943 17.5625C185.386 17.3125 184.739 17.1875 184 17.1875C183.034 17.1875 182.21 17.3807 181.528 17.767C180.858 18.1534 180.528 18.6761 180.54 19.3352C180.528 19.8466 180.733 20.2898 181.153 20.6648C181.585 21.0398 182.352 21.3409 183.455 21.5682L188.5 22.5227C191.114 23.0227 193.057 23.8523 194.33 25.0114C195.614 26.1705 196.261 27.7045 196.273 29.6136C196.261 31.4091 195.727 32.9716 194.67 34.3011C193.625 35.6307 192.193 36.6648 190.375 37.4034C188.557 38.1307 186.477 38.4943 184.136 38.4943C180.398 38.4943 177.449 37.7273 175.29 36.1932C173.142 34.6477 171.915 32.5795 171.608 29.9886L179.841 29.7841C180.023 30.7386 180.494 31.4659 181.256 31.9659C182.017 32.4659 182.989 32.7159 184.17 32.7159C185.239 32.7159 186.108 32.517 186.778 32.1193C187.449 31.7216 187.79 31.1932 187.801 30.5341C187.79 29.9432 187.528 29.4716 187.017 29.1193C186.506 28.7557 185.705 28.4716 184.614 28.267L180.045 27.3977C177.42 26.9205 175.466 26.0398 174.182 24.7557C172.898 23.4602 172.261 21.8125 172.273 19.8125C172.261 18.0625 172.727 16.5682 173.67 15.3295C174.614 14.0795 175.955 13.125 177.693 12.4659C179.432 11.8068 181.483 11.4773 183.847 11.4773C187.392 11.4773 190.188 12.2216 192.233 13.7102C194.278 15.1875 195.409 17.2216 195.625 19.8125Z" fill="white"/>
</svg>
